<svg xmlns="http://www.w3.org/2000/svg" viewBox="0 0 900 540" role="img" aria-label="Diverse colored instruction streams flowing into a processor chip">
  <defs><linearGradient id="bg" x2="1" y2="1"><stop stop-color="#f5fbff"/><stop offset="1" stop-color="#e8f7ff"/></linearGradient><filter id="s"><feDropShadow dx="0" dy="12" stdDeviation="14" flood-color="#0c4a6e" flood-opacity=".14"/></filter></defs>
  <rect width="900" height="540" rx="30" fill="url(#bg)"/>
  <g fill="none" stroke-linecap="round" stroke-width="15"><path d="M75 145h220c95 0 75 72 160 72" stroke="#2563eb"/><path d="M75 220h190c90 0 98 46 190 46" stroke="#8b5cf6"/><path d="M75 295h215c92 0 78 18 165 18" stroke="#14b8a6"/><path d="M75 370h205c97 0 83-8 175-8" stroke="#f59e0b"/></g>
  <g fill="#fff" stroke-width="6"><circle cx="105" cy="145" r="22" stroke="#2563eb"/><rect x="150" y="196" width="48" height="48" rx="10" stroke="#8b5cf6"/><path d="M95 295l24-27 24 27-24 27z" stroke="#14b8a6"/><path d="M84 370h70" stroke="#f59e0b" stroke-linecap="round"/></g>
  <g filter="url(#s)"><rect x="420" y="105" width="330" height="330" rx="58" fill="#fff" stroke="#163a5f" stroke-width="11"/><rect x="485" y="170" width="200" height="200" rx="32" fill="#dbeafe" stroke="#2563eb" stroke-width="8"/></g>
  <g stroke="#163a5f" stroke-width="10" stroke-linecap="round"><path d="M460 80v35M520 80v35M580 80v35M640 80v35M700 80v35M460 425v35M520 425v35M580 425v35M640 425v35M700 425v35M395 150h35M395 215h35M395 280h35M395 345h35M740 150h35M740 215h35M740 280h35M740 345h35"/></g>
  <g fill="#2563eb"><circle cx="535" cy="225" r="24"/><circle cx="635" cy="225" r="24"/><circle cx="535" cy="315" r="24"/><circle cx="635" cy="315" r="24"/></g><path d="M535 225h100M535 315h100M535 225v90M635 225v90" stroke="#60a5fa" stroke-width="12"/>
  <g fill="#ef4444"><circle cx="805" cy="200" r="13"/><circle cx="825" cy="270" r="9"/><circle cx="790" cy="338" r="16"/></g>
</svg>
