<svg xmlns="http://www.w3.org/2000/svg" viewBox="0 0 900 540" role="img" aria-label="Unknown instruction tiles examined over a processor chip">
  <defs><linearGradient id="bg" x2="1" y2="1"><stop stop-color="#f7faff"/><stop offset="1" stop-color="#edf1fa"/></linearGradient><filter id="s"><feDropShadow dx="0" dy="12" stdDeviation="14" flood-color="#172554" flood-opacity=".15"/></filter></defs>
  <rect width="900" height="540" rx="30" fill="url(#bg)"/>
  <g filter="url(#s)"><rect x="110" y="105" width="330" height="330" rx="58" fill="#fff" stroke="#172554" stroke-width="10"/><rect x="175" y="170" width="200" height="200" rx="32" fill="#dbeafe" stroke="#2563eb" stroke-width="8"/></g>
  <g stroke="#172554" stroke-width="10" stroke-linecap="round"><path d="M150 80v35M210 80v35M270 80v35M330 80v35M390 80v35M150 425v35M210 425v35M270 425v35M330 425v35M390 425v35M85 150h35M85 215h35M85 280h35M85 345h35M430 150h35M430 215h35M430 280h35M430 345h35"/></g>
  <g fill="#172554"><rect x="205" y="198" width="58" height="58" rx="10"/><rect x="288" y="198" width="58" height="58" rx="10"/><rect x="205" y="283" width="58" height="58" rx="10"/><rect x="288" y="283" width="58" height="58" rx="10"/></g>
  <g transform="translate(500 105)" filter="url(#s)"><circle cx="125" cy="125" r="108" fill="#fff7d6" stroke="#f59e0b" stroke-width="13"/><path d="M201 201l92 92" stroke="#92400e" stroke-width="30" stroke-linecap="round"/></g>
  <path d="M615 170c0-42 64-46 64-2 0 28-32 31-32 60" fill="none" stroke="#92400e" stroke-width="17" stroke-linecap="round"/><circle cx="647" cy="264" r="11" fill="#92400e"/>
  <g fill="#ef4444"><circle cx="785" cy="170" r="13"/><circle cx="820" cy="220" r="9"/><circle cx="780" cy="365" r="16"/></g>
</svg>
