<svg xmlns="http://www.w3.org/2000/svg" viewBox="0 0 900 540" role="img" aria-labelledby="title desc">
  <title id="title">MystFuzz overview</title>
  <desc id="desc">MystFuzz generates non-standard instructions and compares CPU behaviors to expose security bugs.</desc>
  <defs><marker id="a" markerWidth="10" markerHeight="10" refX="8" refY="3" orient="auto"><path d="M0 0L9 3L0 6Z" fill="#475569"/></marker></defs>
  <rect width="900" height="540" rx="28" fill="#f8fafc"/>
  <text x="450" y="62" text-anchor="middle" font-family="Arial,sans-serif" font-size="32" font-weight="700" fill="#0f172a">MystFuzz</text>
  <rect x="45" y="145" width="220" height="240" rx="20" fill="#ede9fe" stroke="#8b5cf6" stroke-width="4"/><text x="155" y="205" text-anchor="middle" font-family="Arial,sans-serif" font-size="25" font-weight="700" fill="#5b21b6">Non-standard</text><text x="155" y="240" text-anchor="middle" font-family="Arial,sans-serif" font-size="25" font-weight="700" fill="#5b21b6">instructions</text><rect x="80" y="285" width="150" height="38" rx="10" fill="#fff"/><text x="155" y="311" text-anchor="middle" font-family="Arial,sans-serif" font-size="18" fill="#334155">illegal</text><rect x="80" y="333" width="68" height="38" rx="10" fill="#fff"/><text x="114" y="359" text-anchor="middle" font-family="Arial,sans-serif" font-size="17" fill="#334155">reserved</text><rect x="158" y="333" width="72" height="38" rx="10" fill="#fff"/><text x="194" y="359" text-anchor="middle" font-family="Arial,sans-serif" font-size="17" fill="#334155">hint</text>
  <rect x="345" y="145" width="210" height="240" rx="20" fill="#dbeafe" stroke="#3b82f6" stroke-width="4"/><text x="450" y="205" text-anchor="middle" font-family="Arial,sans-serif" font-size="26" font-weight="700" fill="#1e3a8a">CPU execution</text><rect x="385" y="260" width="130" height="92" rx="14" fill="#fff" stroke="#60a5fa" stroke-width="3"/><text x="450" y="300" text-anchor="middle" font-family="Arial,sans-serif" font-size="21" fill="#334155">architectural</text><text x="450" y="330" text-anchor="middle" font-family="Arial,sans-serif" font-size="21" fill="#334155">behavior</text>
  <rect x="635" y="145" width="220" height="240" rx="20" fill="#dcfce7" stroke="#22c55e" stroke-width="4"/><text x="745" y="205" text-anchor="middle" font-family="Arial,sans-serif" font-size="25" font-weight="700" fill="#14532d">Behavior</text><text x="745" y="240" text-anchor="middle" font-family="Arial,sans-serif" font-size="25" font-weight="700" fill="#14532d">checking</text><text x="745" y="300" text-anchor="middle" font-family="Arial,sans-serif" font-size="21" fill="#166534">mismatch?</text><text x="745" y="348" text-anchor="middle" font-family="Arial,sans-serif" font-size="25" font-weight="700" fill="#b91c1c">Security bug</text>
  <path d="M265 265H335M555 265H625" stroke="#475569" stroke-width="5" marker-end="url(#a)"/>
  <path d="M745 400C745 470 155 470 155 395" fill="none" stroke="#0ea5e9" stroke-width="4" marker-end="url(#a)"/><text x="450" y="463" text-anchor="middle" font-family="Arial,sans-serif" font-size="19" fill="#0369a1">feedback-driven exploration</text>
</svg>
